<svg width="185" height="177" viewBox="0 0 185 177" fill="none" xmlns="http://www.w3.org/2000/svg">
<path opacity="0.3" d="M93.0294 145C137.228 145 173.059 140.934 173.059 135.919C173.059 130.903 137.228 126.837 93.0294 126.837C48.8304 126.837 13 130.903 13 135.919C13 140.934 48.8304 145 93.0294 145Z" fill="#E6E6E6"/>
<path d="M37.4495 81.5313C37.4495 81.5313 25.5583 87.2268 24.0068 100.351C22.4554 113.475 18.0739 138.819 50.3312 137.374C82.5886 135.929 97.8001 134.13 90.1943 109.483C82.5886 84.8364 37.4495 81.5313 37.4495 81.5313Z" fill="#FFD200"/>
<path opacity="0.09" d="M36.2316 88.3487C35.8981 90.2008 36.1289 92.1104 36.894 93.8297C37.659 95.5491 38.9231 96.9989 40.5221 97.991C44.8986 100.877 51.6401 111.131 56.8605 116.316C57.6752 117.123 58.3189 118.087 58.753 119.149C59.1871 120.211 59.4029 121.349 59.3874 122.496C59.3874 123.431 59.7664 124.467 60.9995 125.478C64.628 128.444 79.8546 129.925 88.37 120.798C96.8854 111.671 85.6562 107.153 85.6562 107.153L48.2289 86.8932L36.2316 88.3487Z" fill="black"/>
<path d="M118.965 133.028C118.965 133.028 119.758 135.049 121.749 135.484C123.74 135.919 124.822 138.385 120.471 138.011C116.12 137.637 113.729 138.294 114.356 135.903C114.982 133.513 114.699 133.154 114.699 133.154L118.965 133.028Z" fill="#F4A28C"/>
<path d="M89.7446 131.345C89.7446 131.345 89.411 133.473 90.8917 134.883C92.3725 136.293 92.0591 138.926 88.5165 136.399C84.9739 133.872 82.5734 133.21 84.3271 131.471C86.0807 129.733 86.02 129.278 86.02 129.278L89.7446 131.345Z" fill="#F4A28C"/>
<path d="M93.5449 101.099C93.5449 101.099 120.152 101.372 119.895 133.104L113.618 134.17C113.618 134.17 112.41 100.659 77.8331 116.624L79.6373 103.424L93.5449 101.099Z" fill="#24285B"/>
<path opacity="0.09" d="M93.5449 101.099C93.5449 101.099 120.152 101.372 119.895 133.104L113.618 134.17C113.618 134.17 112.41 100.659 77.8331 116.624L79.6373 103.424L93.5449 101.099Z" fill="black"/>
<path d="M95.6321 71.889L97.9416 72.5055L96.2991 70.7368L95.6321 71.889Z" fill="#FFD200"/>
<path d="M59.3368 87.5957C59.3368 87.5957 63.9356 99.2191 75.1598 97.1724C86.3839 95.1256 90.6492 71.5807 90.6492 71.5807C90.6492 71.5807 95.0863 68.6951 92.9385 65.4759C90.7907 62.2568 87.2986 69.2207 87.2986 69.2207C87.2986 69.2207 82.4623 89.0613 71.9962 82.628L59.3368 87.5957Z" fill="#F4A28C"/>
<path opacity="0.09" d="M59.3368 87.5957C59.3368 87.5957 63.9356 99.2191 75.1598 97.1724C86.3839 95.1256 90.6492 71.5807 90.6492 71.5807C90.6492 71.5807 95.0863 68.6951 92.9385 65.4759C90.7907 62.2568 87.2986 69.2207 87.2986 69.2207C87.2986 69.2207 82.4623 89.0613 71.9962 82.628L59.3368 87.5957Z" fill="black"/>
<path d="M59.4783 63.9851L61.9041 64.4905C61.9041 64.4905 80.6531 74.6685 77.1661 84.8617C73.679 95.0549 81.2949 104.733 81.2949 104.733L64.9918 116.214C64.9918 116.214 43.6958 105.647 46.8847 76.5383C46.8847 76.5383 48.3654 62.9794 59.4783 63.9851Z" fill="#1431BF"/>
<path d="M102.565 69.7396L99.4902 68.2614L86.8695 94.5089L89.9437 95.9871L102.565 69.7396Z" fill="#E6E6E6"/>
<path opacity="0.58" d="M146.103 130.916C146.103 130.916 140.928 129.5 139.801 124.684C139.801 124.684 147.821 123.062 148.048 131.34L146.103 130.916Z" fill="#1431BF"/>
<path opacity="0.73" d="M146.724 130.41C146.724 130.41 143.106 124.694 146.29 119.348C146.29 119.348 152.389 123.219 149.681 130.425L146.724 130.41Z" fill="#1431BF"/>
<path d="M147.654 130.41C147.654 130.41 149.565 124.371 155.341 123.229C155.341 123.229 156.427 127.151 151.601 130.425L147.654 130.41Z" fill="#1431BF"/>
<path d="M143.899 130.264L144.951 137.445L151.561 137.47L152.536 130.299L143.899 130.264Z" fill="#24285B"/>
<path opacity="0.66" d="M134.879 31H98.1993V56.6826H134.879V31Z" fill="#E6E6E6"/>
<path opacity="0.43" d="M167.788 66.9769H134.661V90.1731H167.788V66.9769Z" fill="#E6E6E6"/>
<path d="M107.877 42.9367C110.241 42.9367 112.157 41.0203 112.157 38.6563C112.157 36.2923 110.241 34.3758 107.877 34.3758C105.513 34.3758 103.597 36.2923 103.597 38.6563C103.597 41.0203 105.513 42.9367 107.877 42.9367Z" fill="#E6E6E6"/>
<path opacity="0.45" d="M129.451 35.0227H117.398V51.7654H129.451V35.0227Z" fill="#C1C1C1"/>
<path d="M112.612 46.1508H104.334V51.7654H112.612V46.1508Z" fill="#C1C1C1"/>
<path d="M58.5889 51.1994L55.2131 63.1007L61.9041 64.4905L61.6767 55.2726L58.5889 51.1994Z" fill="#F4A28C"/>
<path opacity="0.31" d="M61.8131 57.289C61.0011 56.9723 60.2987 56.4262 59.7917 55.7174C59.7917 55.7174 59.6198 57.9763 61.8131 60.488V57.289Z" fill="#CE8172"/>
<path d="M65.5174 51.5734C65.5174 51.5734 65.1839 55.3333 64.1226 57.6832C64.0201 57.9123 63.8731 58.1187 63.69 58.2903C63.5069 58.462 63.2915 58.5954 63.0563 58.6829C62.8211 58.7704 62.5708 58.8102 62.32 58.8C62.0693 58.7897 61.8231 58.7296 61.5958 58.6232C60.4183 58.0723 58.9881 56.9858 58.9224 54.9492L58.3867 51.5077C58.353 50.8071 58.5369 50.1133 58.9134 49.5215C59.2898 48.9297 59.8402 48.469 60.489 48.2026C62.8643 47.0251 65.8358 49.2689 65.5174 51.5734Z" fill="#F4A28C"/>
<path d="M61.0045 54.0294C61.0045 54.0294 61.2319 52.5942 60.1353 52.5134C59.0387 52.4325 58.7001 54.5045 60.1353 54.9543L61.0045 54.0294Z" fill="#F4A28C"/>
<path d="M65.1839 53.9031L65.9672 55.5203C66.0114 55.6123 66.0317 55.7139 66.0262 55.8159C66.0207 55.9178 65.9895 56.0167 65.9356 56.1034C65.8817 56.1901 65.8067 56.2618 65.7177 56.3118C65.6287 56.3618 65.5285 56.3885 65.4265 56.3895H63.9609L65.1839 53.9031Z" fill="#F4A28C"/>
<path d="M96.3017 70.7361L84.7563 64.0703L84.0917 65.2214L95.6371 71.8871L96.3017 70.7361Z" fill="#24285B"/>
<path opacity="0.18" d="M68.7315 109.892L64.9918 116.214C64.9918 116.214 51.4329 109.645 47.5467 91.866C43.6604 74.0873 56.4815 81.0159 56.4815 81.0159L68.7315 109.892Z" fill="black"/>
<path d="M64.9918 116.214C64.9918 116.214 77.5552 90.6026 96.1324 90.6986C114.71 90.7947 90.5734 132.027 90.5734 132.027L84.4484 129.536C84.4484 129.536 93.5449 111.848 91.2303 106.153C88.9158 100.457 85.3782 139.744 64.9918 116.214Z" fill="#24285B"/>
<path d="M54.2428 65.4203C54.2428 65.4203 59.8321 62.5853 62.6722 68.3464C65.5124 74.1076 63.2736 98.8855 74.801 100.184C86.3283 101.483 92.1754 89.4757 92.1754 89.4757C92.1754 89.4757 93.1255 84.422 94.7022 83.5831C96.2789 82.7442 97.6687 88.0556 94.7022 91.1636C94.7022 91.1636 89.6182 110.261 73.4769 110.691C57.3356 111.12 38.3288 78.4992 54.2428 65.4203Z" fill="#F4A28C"/>
<path d="M65.5427 46.6713C65.5427 46.6713 69.2167 50.9922 64.4612 51.8968C59.7057 52.8014 58.7253 53.6555 59.1802 58.4665C59.635 63.2776 61.52 67.7096 55.2131 70.7267C48.9061 73.7437 54.3287 78.8125 53.1663 84.7253C52.004 90.638 46.4601 94.7214 39.3598 90.6885C32.2594 86.6557 27.8779 76.3362 35.4887 70.1556C43.0995 63.975 52.6711 62.4741 52.6711 52.5083C52.6711 42.5425 60.6255 42.0271 65.5427 46.6713Z" fill="#24285B"/>
<path opacity="0.43" d="M145.188 83.9773C148.018 83.9773 150.312 81.683 150.312 78.8529C150.312 76.0228 148.018 73.7285 145.188 73.7285C142.358 73.7285 140.064 76.0228 140.064 78.8529C140.064 81.683 142.358 83.9773 145.188 83.9773Z" fill="#C1C1C1"/>
<path opacity="0.43" d="M153.481 70.9996H144.572V79.9091H153.481V70.9996Z" fill="#C1C1C1"/>
<path opacity="0.43" d="M163.038 70.9996H156.392V85.7663H163.038V70.9996Z" fill="#C1C1C1"/>
<path d="M95.9282 90.8286L91.2202 89.0336L90.2066 91.6922L94.9146 93.4871L95.9282 90.8286Z" fill="#1431BF"/>
<path opacity="0.44" d="M95.9282 90.8286L91.2202 89.0336L90.2066 91.6922L94.9146 93.4871L95.9282 90.8286Z" fill="white"/>
</svg>
