<svg width="185" height="177" viewBox="0 0 185 177" fill="none" xmlns="http://www.w3.org/2000/svg">
<path d="M37.5931 123.324L152.712 123.324V39.7299L37.5931 39.7299L37.5931 123.324Z" fill="#E6E6E6"/>
<path opacity="0.05" d="M149.68 62.1188C149.68 62.1188 147.293 61.4445 146.464 65.0606C145.635 68.6767 146.023 69.4584 147.783 70.3654C149.543 71.2724 148.642 77.1441 145.438 77.0188C142.233 76.8935 139.626 74.3037 138.056 77.0188C136.487 79.7338 134.9 99.694 128.342 95.3618C121.784 91.0297 120.316 74.5305 120.316 74.5305L108.596 74.3574V87.3002L117.714 87.1152C117.714 87.1152 118.908 103.012 131.707 106.562C132.344 106.732 132.941 107.03 133.459 107.437C133.978 107.844 134.409 108.352 134.725 108.931C135.041 109.51 135.237 110.147 135.3 110.803C135.363 111.46 135.292 112.122 135.091 112.75L131.648 123.318H151.465V109.379C151.465 109.379 152.407 66.1108 149.68 62.1188Z" fill="black"/>
<path opacity="0.45" d="M150.593 144.388C169.596 144.388 185 142.093 185 139.262C185 136.431 169.596 134.136 150.593 134.136C131.591 134.136 116.187 136.431 116.187 139.262C116.187 142.093 131.591 144.388 150.593 144.388Z" fill="#E6E6E6"/>
<path opacity="0.45" d="M30.0447 144.388C46.6379 144.388 60.0893 142.093 60.0893 139.262C60.0893 136.431 46.6379 134.136 30.0447 134.136C13.4515 134.136 0 136.431 0 139.262C0 142.093 13.4515 144.388 30.0447 144.388Z" fill="#E6E6E6"/>
<path opacity="0.58" d="M175.751 134.136C175.751 134.136 179.26 133.194 180.035 129.959C180.035 129.959 174.611 128.838 174.432 134.441L175.751 134.136Z" fill="#1431BF"/>
<path opacity="0.73" d="M175.297 133.796C175.297 133.796 177.762 129.942 175.626 126.314C174.44 127.106 173.562 128.281 173.138 129.643C172.714 131.005 172.771 132.471 173.298 133.796H175.297Z" fill="#1431BF"/>
<path d="M174.701 133.796C174.701 133.796 173.424 129.709 169.521 128.915C169.521 128.915 168.775 131.565 172.027 133.796H174.701Z" fill="#1431BF"/>
<path d="M177.237 133.719L176.503 138.57H172.033L171.395 133.719H177.237Z" fill="#24285B"/>
<path d="M149.102 74.5364C149.102 74.5364 141.649 73.5399 140.151 79.7696C138.653 85.9994 138.444 94.6219 132.453 96.3464C126.462 98.0709 123.156 86.1008 123.156 86.1008C123.156 86.1008 121.766 82.7413 120.268 82.2818C118.77 81.8223 117.702 85.1401 120.268 87.1689C120.268 87.1689 122.434 102.457 133.909 101.92C145.384 101.383 149.102 85.6234 149.102 74.5364Z" fill="#F4A28C"/>
<path opacity="0.08" d="M149.102 74.5364C149.102 74.5364 141.649 73.5399 140.151 79.7696C138.653 85.9994 138.444 94.6219 132.453 96.3464C126.462 98.0709 123.156 86.1008 123.156 86.1008C123.156 86.1008 121.766 82.7413 120.268 82.2818C118.77 81.8223 117.702 85.1401 120.268 87.1689C120.268 87.1689 122.434 102.457 133.909 101.92C145.384 101.383 149.102 85.6234 149.102 74.5364Z" fill="black"/>
<path d="M149.102 74.5364C149.102 74.5364 141.1 72.9552 139.978 79.4236C139.367 83.1296 138.328 86.7521 136.881 90.2182L142.991 92.1993L149.102 74.5364Z" fill="#1431BF"/>
<path opacity="0.46" d="M149.102 74.5364C149.102 74.5364 141.1 72.9552 139.978 79.4236C139.367 83.1296 138.328 86.7521 136.881 90.2182L142.991 92.1993L149.102 74.5364Z" fill="white"/>
<path d="M149.483 64.0283C148.918 65.2386 148.517 66.5189 148.29 67.8353C148.272 67.994 148.286 68.1548 148.331 68.308C148.376 68.4612 148.452 68.6039 148.553 68.7274C148.654 68.8509 148.779 68.9529 148.921 69.0272C149.062 69.1015 149.217 69.1467 149.376 69.16C149.882 69.2429 150.402 69.1777 150.872 68.9724C151.342 68.767 151.742 68.4301 152.025 68.0024L153.428 66.2838C153.673 65.9096 153.795 65.4684 153.778 65.0215C153.761 64.5745 153.605 64.144 153.332 63.7896C152.389 62.4052 150.038 62.6677 149.483 64.0283Z" fill="#F4A28C"/>
<path d="M152.885 66.6777L153.452 74.5364H149.102L150.402 68.9631L152.885 66.6777Z" fill="#F4A28C"/>
<path d="M148.905 65.4305L147.956 66.0631C147.902 66.0983 147.857 66.1465 147.826 66.2033C147.795 66.2601 147.779 66.3237 147.779 66.3883C147.779 66.4529 147.795 66.5165 147.826 66.5733C147.857 66.6301 147.902 66.6783 147.956 66.7135L148.755 67.1968L148.905 65.4305Z" fill="#F4A28C"/>
<path opacity="0.31" d="M150.367 69.0944C150.89 69.0021 151.379 68.769 151.781 68.4201C151.781 68.4201 152.067 70.1207 149.991 70.6936L150.367 69.0944Z" fill="#CE8172"/>
<path d="M151.465 66.5822C151.465 66.5822 151.805 65.717 152.431 66.0273C153.058 66.3376 152.58 67.5847 151.65 67.3699L151.465 66.5822Z" fill="#F4A28C"/>
<path d="M141.237 119.278L137.555 136.01H139.697L146.858 119.278H141.237Z" fill="#F4A28C"/>
<path d="M153.213 117.249L157.139 136.01H159.293L158.965 117.112L153.213 117.249Z" fill="#F4A28C"/>
<path d="M137.555 136.01C137.555 136.01 136.362 137.514 134.846 137.442C133.33 137.371 133.104 139.513 135.55 139.292C136.312 139.229 137.067 139.099 137.806 138.904C138.487 138.749 139.196 138.774 139.864 138.976C139.995 139.008 140.132 138.999 140.257 138.949C140.382 138.9 140.489 138.814 140.563 138.701C141.255 137.884 139.554 136.01 139.554 136.01H137.555Z" fill="#1431BF"/>
<path d="M159.132 136.01C159.132 136.01 160.326 137.514 161.841 137.442C163.357 137.371 163.584 139.513 161.143 139.292C160.381 139.229 159.627 139.099 158.888 138.904C158.205 138.749 157.493 138.774 156.823 138.976C156.693 139.008 156.557 138.999 156.433 138.95C156.309 138.901 156.203 138.814 156.131 138.701C155.433 137.884 157.139 136.01 157.139 136.01H159.132Z" fill="#1431BF"/>
<path d="M149.102 74.5364H153.452C153.452 74.5364 153.75 74.5364 154.263 74.5364C163.757 74.8408 169.271 85.3847 164.228 93.4344C161.424 97.9098 158.076 103.943 157.855 107.547L140.938 106.688C140.938 106.688 142.215 95.7139 139.083 89.4424C139.083 89.4484 133.318 79.5727 149.102 74.5364Z" fill="#1431BF"/>
<path opacity="0.08" d="M156.656 80.2828C156.656 80.2828 154.556 84.6329 154.054 92.4558C153.553 100.279 141.684 91.0356 141.684 91.0356L141.135 103.961L158.41 104.897L159.848 99.6582C159.848 99.6582 164.377 91.5249 156.656 80.2828Z" fill="black"/>
<path d="M140.827 102.524L152.105 101.203L150.065 83.779L138.786 85.1L140.827 102.524Z" fill="#FFD200"/>
<path d="M141.997 86.2033L147.248 85.5883L146.949 83.0339L141.698 83.6489L141.997 86.2033Z" fill="#24285B"/>
<path d="M141.135 103.961L158.41 104.873L163.029 122.369L138.056 121.48L141.135 103.961Z" fill="#24285B"/>
<path opacity="0.08" d="M139.471 91.0595L151.465 95.8452L152.097 101.222L140.819 102.546L139.471 91.0595Z" fill="black"/>
<path d="M156.799 81.1182C156.771 80.3485 156.984 79.5892 157.41 78.9471C157.835 78.3051 158.451 77.8127 159.171 77.5393C159.892 77.2659 160.679 77.2252 161.424 77.423C162.168 77.6208 162.832 78.0471 163.321 78.6419C165.774 81.585 167.072 85.3201 166.973 89.15C166.83 99.3897 165.452 110.477 143.361 98.3633L144.555 95.1172C144.555 95.1172 154.359 99.8313 158.452 98.3037C161.46 97.1699 157.109 88.1535 156.799 81.1182Z" fill="#F4A28C"/>
<path d="M144.549 95.1112C144.549 95.1112 140.867 93.3628 139.297 95.1112C137.728 96.8596 140.222 98.429 143.361 98.3574L144.549 95.1112Z" fill="#F4A28C"/>
<path d="M149.102 62.8706L148.344 64.7622L151.465 65.9556C151.465 65.9556 151.644 68.0561 150.54 68.438C150.796 68.4249 151.046 68.3606 151.277 68.2489C151.507 68.1371 151.713 67.9803 151.882 67.7876C152.014 67.6432 152.196 67.5556 152.391 67.5433C152.586 67.5311 152.778 67.5951 152.927 67.7219L152.962 67.7577C153.858 66.8772 154.489 65.7628 154.782 64.5414C155.14 62.6916 153.07 62.4052 153.07 62.4052C153.07 62.4052 150.331 60.4838 149.102 62.8706Z" fill="#24285B"/>
<path d="M153.07 62.4112C153.07 62.4112 153.213 60.621 156.423 60.9134C159.634 61.2058 156.423 65.526 159.061 69.5658C159.061 69.5658 154.209 68.5394 154.072 64.1953L153.07 62.4112Z" fill="#24285B"/>
<path d="M152.873 62.2858C153.116 62.1535 153.392 62.0954 153.668 62.1187C153.944 62.1421 154.207 62.2458 154.424 62.4171C155.331 63.0138 155.731 65.0844 154.299 65.8065C154.299 65.8065 155.486 62.9661 152.873 62.2858Z" fill="#FFD200"/>
<path d="M158.201 92.1993H167.612C167.612 92.1993 168.644 78.4748 160.857 76.6846C153.07 74.8945 158.201 92.1993 158.201 92.1993Z" fill="#1431BF"/>
<path opacity="0.46" d="M158.201 92.1993H167.612C167.612 92.1993 168.644 78.4748 160.857 76.6846C153.07 74.8945 158.201 92.1993 158.201 92.1993Z" fill="white"/>
<path d="M113.257 85.1103H127.369V73.337H113.257V85.1103Z" fill="#24285B"/>
<path opacity="0.62" d="M125.901 83.2843L122.536 77.2813L120.179 81.7269L117.326 77.9556L114.468 83.2843H125.901Z" fill="white"/>
<path d="M119.66 77.7289C120.279 77.7289 120.781 77.2266 120.781 76.607C120.781 75.9875 120.279 75.4852 119.66 75.4852C119.04 75.4852 118.538 75.9875 118.538 76.607C118.538 77.2266 119.04 77.7289 119.66 77.7289Z" fill="white"/>
<path opacity="0.05" d="M46.1142 80.1038L38.6314 80.3067L36.167 123.324H46.9079C47.5046 121.277 49.0561 110.632 54.8919 104.468C60.6324 98.3991 84.0714 82.6697 75.4846 72.0481C71.3076 66.8746 64.2902 86.6259 64.2902 86.6259L53.239 87.9387L53.9969 87.5449L46.1142 80.1038Z" fill="black"/>
<path d="M29.621 69.3629L30.8622 73.0804L27.9204 74.9482L26.8642 68.5096L29.621 69.3629Z" fill="#F4A28C"/>
<path d="M25.8557 64.9174C26.0078 64.5601 26.2476 64.2469 26.5528 64.0068C26.858 63.7667 27.2189 63.6075 27.602 63.5438C27.9851 63.4802 28.378 63.5142 28.7445 63.6427C29.1109 63.7711 29.4391 63.99 29.6986 64.2789C30.9457 65.6155 32.4554 67.7398 30.7488 68.8915C28.1411 70.6816 25.7423 67.3579 25.7423 67.3579C25.536 66.5513 25.5755 65.7014 25.8557 64.9174V64.9174Z" fill="#F4A28C"/>
<path d="M27.7652 67.1968C27.7652 67.1968 27.0909 66.6359 26.7926 67.4355C26.4942 68.2351 27.6698 68.6289 28.0218 68.2112C28.3739 67.7935 27.7652 67.1968 27.7652 67.1968Z" fill="#F4A28C"/>
<path d="M21.8577 76.8517C21.8577 76.8517 9.76823 84.1436 8.175 101.317C8.03762 102.744 8.41849 104.173 9.24795 105.342C10.0774 106.511 11.3 107.342 12.6921 107.684L26.8642 111.103L21.8577 76.8517Z" fill="#1431BF"/>
<path opacity="0.2" d="M21.8577 76.8517C21.8577 76.8517 9.76823 84.1436 8.175 101.317C8.03762 102.744 8.41849 104.173 9.24795 105.342C10.0774 106.511 11.3 107.342 12.6921 107.684L26.8642 111.103L21.8577 76.8517Z" fill="white"/>
<path d="M26.9336 97.6697L8.35748 106.206L13.9386 118.351L32.5147 109.815L26.9336 97.6697Z" fill="#FFD200"/>
<path d="M28.1352 66.2361C28.1352 66.2361 29.5196 70.2102 27.1029 69.9596C24.6862 69.709 26.0049 68.0024 24.8055 66.2361C23.6061 64.4698 24.2088 63.2525 26.0706 61.719C26.912 61.0089 27.4729 60.6747 27.813 60.2988C27.9553 60.1315 28.1376 60.0029 28.343 59.925C28.5483 59.8472 28.7701 59.8226 28.9875 59.8535C29.205 59.8845 29.411 59.9701 29.5865 60.1022C29.762 60.2343 29.9011 60.4087 29.991 60.6091C30.6176 62.1367 30.6235 64.1774 28.1352 66.2361Z" fill="#24285B"/>
<path d="M19.0591 80.432C19.6328 79.1576 20.4746 78.0219 21.527 77.1023C22.5794 76.1827 23.8177 75.5009 25.1576 75.1033C30.3311 73.5519 40.1471 70.2938 43.0591 75.1033C47.0272 81.7209 40.9169 107.708 40.9169 107.708L23.5345 109.074C23.5345 109.074 13.9811 91.8353 19.0591 80.432Z" fill="#1431BF"/>
<path d="M40.9049 107.72L38.6195 137.585H35.0093L31.7811 114.379L23.797 109.068L40.9049 107.72Z" fill="#24285B"/>
<path d="M23.7971 109.068L18.8145 137.585H22.6872L31.0472 113.896L23.7971 109.068Z" fill="#24285B"/>
<path opacity="0.08" d="M26.6613 74.6379C26.6613 74.6379 18.5341 100.81 41.9969 102.54L40.9049 107.72L23.5345 109.074C19.543 102.036 17.5189 94.0534 17.6748 85.9635C17.6748 85.9635 17.824 79.2923 22.5201 76.3385C23.7642 75.4842 25.1759 74.9044 26.6613 74.6379Z" fill="black"/>
<path d="M19.5186 137.585L17.1317 139.376C17.0436 139.442 16.9784 139.535 16.9453 139.64C16.9121 139.745 16.9126 139.858 16.9468 139.964C16.9809 140.069 17.047 140.16 17.1357 140.226C17.2245 140.292 17.3316 140.328 17.442 140.33H21.4699C21.6097 140.33 21.7439 140.275 21.8433 140.177C21.9427 140.079 21.9994 139.945 22.0009 139.805V137.609L19.5186 137.585Z" fill="#1431BF"/>
<path d="M38.518 137.585L40.7796 139.376C40.869 139.443 40.9347 139.537 40.9674 139.644C41.0001 139.751 40.9981 139.866 40.9617 139.972C40.9253 140.078 40.8563 140.17 40.7647 140.234C40.673 140.298 40.5634 140.332 40.4514 140.33H37.5812C37.1761 140.33 36.7875 140.169 36.501 139.883C36.2145 139.596 36.0536 139.208 36.0536 138.803V137.609L38.518 137.585Z" fill="#1431BF"/>
<path d="M74.0465 72.4241L71.4687 71.6662L60.0177 81.6254C59.176 82.3547 58.1569 82.849 57.0631 83.0586C55.9693 83.2681 54.8396 83.1854 53.788 82.8189C50.6745 81.7598 48.0268 79.65 46.2992 76.8517C42.1938 70.1923 35.2182 72.5971 35.2182 72.5971C35.2182 72.5971 29.9611 77.7766 40.3738 86.6617C46.5916 91.9665 52.9586 92.3007 57.0819 91.7099C57.5849 91.6492 58.0909 91.6153 58.5975 91.6085C59.0845 91.5919 59.5641 91.4846 60.0118 91.2922C60.5658 91.055 61.1058 90.7861 61.6289 90.4867V90.4867C65.8536 88.0461 70.4066 82.8785 74.0465 72.4241Z" fill="#1431BF"/>
<path opacity="0.2" d="M74.0465 72.4241L71.4687 71.6662L60.0177 81.6254C59.176 82.3547 58.1569 82.849 57.0631 83.0586C55.9693 83.2681 54.8396 83.1854 53.788 82.8189C50.6745 81.7598 48.0268 79.65 46.2992 76.8517C42.1938 70.1923 35.2182 72.5971 35.2182 72.5971C35.2182 72.5971 29.9611 77.7766 40.3738 86.6617C46.5916 91.9665 52.9586 92.3007 57.0819 91.7099C57.5849 91.6492 58.0909 91.6153 58.5975 91.6085C59.0845 91.5919 59.5641 91.4846 60.0118 91.2922C60.5658 91.055 61.1058 90.7861 61.6289 90.4867V90.4867C65.8536 88.0461 70.4066 82.8785 74.0465 72.4241Z" fill="white"/>
<path d="M71.4687 71.6662C71.4687 71.6662 72.9187 67.4892 74.0704 67.1968C75.2221 66.9044 74.0704 69.4285 74.0704 69.4285C74.0704 69.4285 77.233 70.98 74.0704 72.4121L71.4687 71.6662Z" fill="#F4A28C"/>
<path opacity="0.55" d="M84.0415 82.6697L81.595 85.7368C78.993 89.0019 77.7646 93.1518 78.1698 97.3071L78.6412 102.081L85.8018 95.5766L84.0415 82.6697Z" fill="#878787"/>
<path opacity="0.55" d="M101.221 82.6697L103.668 85.7368C106.272 89.0007 107.501 93.1515 107.093 97.3071L106.627 102.081L99.4667 95.5766L101.221 82.6697Z" fill="#878787"/>
<path opacity="0.55" d="M89.3702 96.5911C89.3702 96.5911 91.6019 109.719 87.9321 110.823C84.2623 111.927 82.5617 106.001 77.7163 109.528C72.871 113.054 79.0828 116.939 70.5259 115.859C61.969 114.779 58.6512 118.998 60.6681 123.324H123.819C123.819 123.324 126.987 119.308 123.461 116.575C122.694 115.998 121.812 115.593 120.875 115.388C119.938 115.182 118.968 115.18 118.03 115.382C117.772 115.425 117.506 115.412 117.254 115.342C117.001 115.271 116.766 115.147 116.567 114.976C116.368 114.805 116.208 114.592 116.1 114.353C115.992 114.114 115.938 113.854 115.942 113.592C115.978 112.297 115.757 110.829 114.749 109.934C113.555 108.842 111.019 109.981 109.133 111.127C106.993 112.447 104.473 113.014 101.973 112.738C99.7829 112.476 97.5392 111.748 96.9306 109.946C95.6357 106.133 96.4234 96.3345 96.4234 96.3345L89.3702 96.5911Z" fill="white"/>
<path d="M92.6402 55.4355C92.6402 55.4355 74.5597 65.3589 85.8078 95.5707H99.4786C110.727 65.3589 92.6402 55.4355 92.6402 55.4355Z" fill="#C1C1C1"/>
<path d="M99.4786 95.5707L98.87 97.8859H86.4642L85.8078 95.2962L99.4786 95.5707Z" fill="#878787"/>
<path d="M92.7715 77.8005C95.3355 77.8005 97.414 75.722 97.414 73.158C97.414 70.5941 95.3355 68.5156 92.7715 68.5156C90.2076 68.5156 88.1291 70.5941 88.1291 73.158C88.1291 75.722 90.2076 77.8005 92.7715 77.8005Z" fill="#E6E6E6"/>
<path d="M45.8278 51.169C47.4328 51.169 48.7338 49.8679 48.7338 48.263C48.7338 46.658 47.4328 45.357 45.8278 45.357C44.2229 45.357 42.9218 46.658 42.9218 48.263C42.9218 49.8679 44.2229 51.169 45.8278 51.169Z" fill="#FFD200"/>
<path d="M54.0028 51.169C55.6078 51.169 56.9089 49.8679 56.9089 48.263C56.9089 46.658 55.6078 45.357 54.0028 45.357C52.3979 45.357 51.0968 46.658 51.0968 48.263C51.0968 49.8679 52.3979 51.169 54.0028 51.169Z" fill="#1431BF"/>
<path d="M61.8377 51.169C63.4427 51.169 64.7437 49.8679 64.7437 48.263C64.7437 46.658 63.4427 45.357 61.8377 45.357C60.2328 45.357 58.9317 46.658 58.9317 48.263C58.9317 49.8679 60.2328 51.169 61.8377 51.169Z" fill="#24285B"/>
<path d="M144.549 31H105.404V58.1446H144.549V31Z" fill="#F4F4F4"/>
<path d="M119.069 46.6578H114.665V52.2908H119.069V46.6578Z" fill="#C1C1C1"/>
<path d="M127.298 42.3257H122.894V52.2908H127.298V42.3257Z" fill="#C1C1C1"/>
<path d="M135.371 37.904H130.967V52.2908H135.371V37.904Z" fill="#C1C1C1"/>
</svg>
