<svg width="185" height="177" viewBox="0 0 185 177" fill="none" xmlns="http://www.w3.org/2000/svg">
<path opacity="0.45" d="M92.8041 151.351C141.297 151.351 180.608 147.718 180.608 143.237C180.608 138.756 141.297 135.123 92.8041 135.123C44.3113 135.123 5 138.756 5 143.237C5 147.718 44.3113 151.351 92.8041 151.351Z" fill="#E6E6E6"/>
<path opacity="0.58" d="M142.59 135.057C142.59 135.057 137.263 133.6 136.101 128.646C136.101 128.646 144.354 126.979 144.589 135.496L142.59 135.057Z" fill="#1431BF"/>
<path opacity="0.73" d="M143.24 134.557C143.24 134.557 139.52 128.676 142.795 123.175C142.795 123.175 149.067 127.159 146.28 134.575L143.24 134.557Z" fill="#1431BF"/>
<path d="M144.197 134.557C144.197 134.557 146.166 128.345 152.113 127.165C152.113 127.165 153.226 131.204 148.26 134.575L144.197 134.557Z" fill="#1431BF"/>
<path d="M140.339 134.395L141.416 141.78L148.218 141.811L149.217 134.431L140.339 134.395Z" fill="#24285B"/>
<path d="M122.606 24H56.5617V142.449H122.606V24Z" fill="#C9C9C9"/>
<path d="M116.689 37.5014H62.0212V120.863H116.689V37.5014Z" fill="white"/>
<path opacity="0.56" d="M89.7824 138.006C93.3528 138.006 96.2472 135.112 96.2472 131.542C96.2472 127.971 93.3528 125.077 89.7824 125.077C86.212 125.077 83.3177 127.971 83.3177 131.542C83.3177 135.112 86.212 138.006 89.7824 138.006Z" fill="white"/>
<path opacity="0.12" d="M102.507 28.6289H83.9918V31.3316H102.507V28.6289Z" fill="black"/>
<path d="M77.2863 33.2939C78.9518 33.2939 80.3019 31.9437 80.3019 30.2782C80.3019 28.6127 78.9518 27.2625 77.2863 27.2625C75.6207 27.2625 74.2706 28.6127 74.2706 30.2782C74.2706 31.9437 75.6207 33.2939 77.2863 33.2939Z" fill="white"/>
<path d="M35.7949 140.48C35.7949 140.48 34.8258 141.684 35.3977 142.834C35.9695 143.984 35.0486 144.947 34.1938 144.11C33.3391 143.273 33.0562 139.896 33.0562 139.896L34.7055 139.012L35.7949 140.48Z" fill="#1431BF"/>
<path d="M45.787 83.0979C45.787 83.0979 52.6371 83.0196 55.3397 89.4904C58.0424 95.9612 58.3013 106.302 58.3013 106.302L70.7192 98.2185L56.7001 111.822L51.1142 104.683L45.787 83.0979Z" fill="#1431BF"/>
<path opacity="0.3" d="M45.787 83.0979C45.787 83.0979 52.6371 83.0196 55.3397 89.4904C58.0424 95.9612 58.3013 106.302 58.3013 106.302L70.7192 98.2185L56.7001 111.822L51.1142 104.683L45.787 83.0979Z" fill="white"/>
<path d="M64.0497 131.861C64.0497 131.861 64.6517 133.269 65.9458 133.311C67.24 133.353 67.6493 134.599 66.4996 134.991C65.3499 135.382 62.2861 134.04 62.2861 134.04V132.168L64.0497 131.861Z" fill="#1431BF"/>
<path d="M36.3728 72.3173C37.2585 73.6214 37.9651 75.0386 38.4735 76.5308C38.5226 76.7118 38.5353 76.9008 38.5109 77.0867C38.4866 77.2727 38.4256 77.452 38.3316 77.6143C38.2376 77.7766 38.1124 77.9186 37.9632 78.0323C37.814 78.1459 37.6437 78.2289 37.4623 78.2764C36.8895 78.4665 36.2739 78.487 35.6898 78.3354C35.1056 78.1837 34.5777 77.8664 34.1697 77.4217L32.2194 75.6881C31.8669 75.2985 31.6435 74.8093 31.5799 74.2877C31.5163 73.7661 31.6157 73.2376 31.8643 72.7747C32.689 70.9749 35.4699 70.8425 36.3728 72.3173Z" fill="#F4A28C"/>
<path d="M33.0983 75.6038L34.3924 83.2965L39.6112 83.5373L36.5714 77.524L33.0983 75.6038Z" fill="#F4A28C"/>
<path d="M37.2998 73.8401L38.5036 74.3999C38.5733 74.4315 38.6339 74.4803 38.6796 74.5416C38.7252 74.603 38.7546 74.675 38.7648 74.7508C38.775 74.8266 38.7658 74.9038 38.738 74.9751C38.7103 75.0464 38.6648 75.1095 38.606 75.1584L37.7633 75.8686L37.2998 73.8401Z" fill="#F4A28C"/>
<path opacity="0.31" d="M37.0289 78.4329C36.4034 78.4683 35.7798 78.3353 35.2231 78.0477C35.2231 78.0477 35.3736 80.0702 37.9017 80.1544L37.0289 78.4329Z" fill="#CE8172"/>
<path d="M24.0271 89.3039C30.0465 81.4787 43.9391 80.648 50.5122 85.1385C56.959 89.5687 53.859 115.765 53.859 115.765L38.3231 120.051C38.3231 120.051 15.2028 102.57 24.0271 89.3039Z" fill="#1431BF"/>
<path d="M38.293 120.051L40.2372 124.746C40.4929 126.117 40.4557 127.527 40.1279 128.883C39.8 130.239 39.1891 131.51 38.3351 132.613L33.5196 138.861L36.1982 140.781L43.2048 135.159C44.6452 134.014 45.8101 132.56 46.6134 130.905C47.4166 129.249 47.8378 127.435 47.8457 125.594V123.187L50.446 116.963L38.293 120.051Z" fill="#24285B"/>
<path opacity="0.08" d="M31.1119 87.0707C31.1119 87.0707 38.5759 90.0803 37.8957 97.755C37.2155 105.43 39.4968 110.179 51.5054 109.721L49.5852 116.915L38.293 120.051C34.4864 116.331 31.1526 112.156 28.3671 107.621L27.6387 106.417L31.1721 96.2441L31.1119 87.0707Z" fill="black"/>
<path d="M38.293 120.051L45.5162 125.318L55.111 122.35C55.5789 122.208 56.0708 122.163 56.5567 122.217C57.0427 122.271 57.5127 122.422 57.9382 122.663C58.3637 122.904 58.7358 123.229 59.0321 123.618C59.3283 124.007 59.5425 124.452 59.6616 124.926L61.4313 132.24L64.6878 131.963L63.6344 122.091C63.446 120.312 62.6117 118.663 61.2895 117.457C59.9672 116.251 58.2487 115.572 56.4593 115.548V115.548C51.5926 115.489 46.7668 116.444 42.2898 118.353L38.293 120.051Z" fill="#24285B"/>
<path d="M78.0374 90.7975L73.1712 86.0021L56.3726 103.049L61.2388 107.844L78.0374 90.7975Z" fill="#24285B"/>
<path opacity="0.29" d="M78.0374 90.7975L73.1712 86.0021L56.3726 103.049L61.2388 107.844L78.0374 90.7975Z" fill="white"/>
<path d="M33.5798 77.217L32.8034 76.916C31.7584 76.5315 30.6185 76.4873 29.5469 76.7896C29.3676 76.8642 29.1745 76.9001 28.9804 76.8949C28.7863 76.8897 28.5954 76.8435 28.4204 76.7594C28.2454 76.6753 28.0901 76.5551 27.9647 76.4068C27.8393 76.2585 27.7467 76.0854 27.6929 75.8988C26.9706 73.8883 29.0473 73.7619 29.0473 73.7619C28.7175 73.467 28.4867 73.0775 28.3865 72.6466C28.2863 72.2156 28.3216 71.7643 28.4875 71.3542C29.0473 69.8674 31.0999 71.0472 31.0999 71.0472C31.0999 71.0472 30.3294 69.3076 31.5092 68.6936C32.689 68.0796 33.8146 69.8192 33.8146 69.8192C33.8146 69.8192 33.8146 67.875 35.2773 68.3866C36.74 68.8983 37.3179 69.4581 36.9266 70.8425C36.5353 72.227 33.315 73.7137 33.315 73.7137C33.315 73.7137 36.5534 75.1644 33.5798 77.217Z" fill="#24285B"/>
<path d="M68.0543 100.679L63.7583 96.4452C62.733 95.4348 61.0828 95.4469 60.0724 96.4722L44.9258 111.843C43.9154 112.868 43.9275 114.518 44.9528 115.528L49.2488 119.762C50.2741 120.772 51.9243 120.76 52.9347 119.735L68.0813 104.365C69.0917 103.339 69.0796 101.689 68.0543 100.679Z" fill="#24285B"/>
<path d="M106.54 57.1304C103.088 53.7302 98.7059 51.4299 93.9467 50.5203C89.1876 49.6108 84.2656 50.1329 79.8032 52.0206C75.3408 53.9083 71.5383 57.0768 68.8767 61.1256C66.215 65.1743 64.8137 69.9214 64.8499 74.7665C64.886 79.6117 66.3581 84.3373 69.08 88.3458C71.8019 92.3543 75.6512 95.4657 80.1414 97.2865C84.6315 99.1074 89.5607 99.5559 94.3057 98.5753C99.0508 97.5948 103.398 95.2292 106.799 91.7778C109.058 89.4863 110.843 86.7722 112.053 83.7905C113.262 80.8088 113.872 77.6181 113.848 74.4005C113.824 71.1829 113.167 68.0016 111.913 65.0383C110.659 62.0751 108.833 59.3879 106.54 57.1304V57.1304ZM76.5037 87.6064C73.927 85.0654 72.1615 81.8175 71.4305 78.2733C70.6995 74.7291 71.0358 71.0477 72.3969 67.6946C73.758 64.3414 76.0827 61.4672 79.0772 59.4352C82.0717 57.4032 85.6014 56.3047 89.2202 56.2786C92.8389 56.2525 96.3841 57.3 99.4076 59.2886C102.431 61.2772 104.797 64.1177 106.206 67.4508C107.616 70.784 108.005 74.4601 107.325 78.0145C106.645 81.5689 104.927 84.842 102.387 87.4198C100.7 89.132 98.6921 90.4951 96.4782 91.4311C94.2643 92.3672 91.8876 92.8579 89.484 92.8752C87.0804 92.8926 84.6969 92.4362 82.4697 91.5321C80.2425 90.6281 78.2153 89.2941 76.5037 87.6064Z" fill="#FFD200"/>
<path d="M32.1292 87.6606C31.0744 86.9038 29.78 86.5572 28.4882 86.6858C27.1964 86.8143 25.9957 87.409 25.1106 88.3588C20.9453 92.7108 15.8288 105.153 22.0227 113.339C29.7816 123.572 40.3937 120.015 54.2382 115.783L53.5881 112.49C53.5881 112.49 27.7712 115.964 30.5943 104.822C32.8335 96.0335 35.8913 90.4896 32.1292 87.6606Z" fill="#1431BF"/>
<path opacity="0.3" d="M32.1292 87.6606C31.0744 86.9038 29.78 86.5572 28.4882 86.6858C27.1964 86.8143 25.9957 87.409 25.1106 88.3588C20.9453 92.7108 15.8288 105.153 22.0227 113.339C29.7816 123.572 40.3937 120.015 54.2382 115.783L53.5881 112.49C53.5881 112.49 27.7712 115.964 30.5943 104.822C32.8335 96.0335 35.8913 90.4896 32.1292 87.6606Z" fill="white"/>
<path d="M53.8229 113.7C53.8229 113.7 58.1387 111.575 58.2531 113.7C58.3675 115.825 54.2382 115.783 54.2382 115.783L53.8229 113.7Z" fill="#F4A28C"/>
<path d="M66.0181 106.453C66.0181 106.453 69.7801 105.249 68.8712 103.558C67.9623 101.866 65.8194 102.769 66.0181 106.453Z" fill="#F4A28C"/>
<path d="M34.862 74.9658C34.862 74.9658 33.8627 74.1291 33.2608 74.9658C32.6589 75.8025 34.1336 77.0364 35.1629 76.1335L34.862 74.9658Z" fill="#F4A28C"/>
<path d="M93.7191 67.267C92.653 67.2637 91.6173 67.6223 90.7816 68.2843C90.0749 68.8498 89.4894 69.552 89.0601 70.3489C88.6333 69.5521 88.0497 68.8498 87.3446 68.2843C86.5066 67.6223 85.469 67.2637 84.4011 67.267C81.3915 67.267 79.1222 69.7289 79.1222 72.9914C79.1222 76.5188 81.9573 78.9325 86.243 82.5862C86.9714 83.1882 87.796 83.9105 88.6508 84.6629C88.7621 84.7661 88.9083 84.8235 89.0601 84.8235C89.2119 84.8235 89.3581 84.7661 89.4694 84.6629C90.3302 83.9105 91.1548 83.2062 91.8771 82.5862C96.1629 78.9325 98.992 76.5188 98.992 72.9914C98.998 69.7289 96.7287 67.267 93.7191 67.267Z" fill="#1431BF"/>
<path d="M104.939 103.558H73.8974V114.868H104.939V103.558Z" fill="#24285B"/>
<path d="M95.3262 107.699H76.883V111.184H95.3262V107.699Z" fill="#1431BF"/>
<path d="M95.3262 107.699H89.8426V111.184H95.3262V107.699Z" fill="white"/>
<path d="M101.653 106.904H97.5775V112.051H101.653V106.904Z" fill="#FFD200"/>
<path d="M102.056 106.272H97.1741V107.272H102.056V106.272Z" fill="#FFD200"/>
<path d="M100.124 105.61H99.0883V106.465H100.124V105.61Z" fill="#FFD200"/>
<path opacity="0.08" d="M101.653 107.272H97.5775V107.898H101.653V107.272Z" fill="black"/>
</svg>
